<svg width="12" height="14" viewBox="0 0 12 14" fill="none" xmlns="http://www.w3.org/2000/svg">
<path d="M2.5 14C2.0875 14 1.73438 13.8531 1.44062 13.5594C1.14687 13.2656 1 12.9125 1 12.5V2.5H0.75C0.5375 2.5 0.359375 2.42854 0.215625 2.28563C0.0718751 2.14271 0 1.96563 0 1.75438C0 1.54313 0.0718751 1.36458 0.215625 1.21875C0.359375 1.07292 0.5375 1 0.75 1H4V0.75C4 0.5375 4.07188 0.359375 4.21563 0.215624C4.35938 0.0718745 4.5375 0 4.75 0H7.25C7.4625 0 7.64063 0.0718745 7.78438 0.215624C7.92813 0.359375 8 0.5375 8 0.75V1H11.25C11.4625 1 11.6406 1.07146 11.7844 1.21437C11.9281 1.35729 12 1.53437 12 1.74562C12 1.95687 11.9281 2.13542 11.7844 2.28125C11.6406 2.42708 11.4625 2.5 11.25 2.5H11V12.491C11 12.9137 10.8531 13.2708 10.5594 13.5625C10.2656 13.8542 9.9125 14 9.5 14H2.5ZM9.5 2.5H2.5V12.5H9.5V2.5ZM4.74563 11C4.95688 11 5.13542 10.9281 5.28125 10.7844C5.42708 10.6406 5.5 10.4625 5.5 10.25V4.75C5.5 4.5375 5.42854 4.35938 5.28562 4.21562C5.14271 4.07187 4.96562 4 4.75437 4C4.54313 4 4.36458 4.07187 4.21875 4.21562C4.07292 4.35938 4 4.5375 4 4.75V10.25C4 10.4625 4.07146 10.6406 4.21438 10.7844C4.35729 10.9281 4.53438 11 4.74563 11ZM7.24562 11C7.45687 11 7.63542 10.9281 7.78125 10.7844C7.92708 10.6406 8 10.4625 8 10.25V4.75C8 4.5375 7.92854 4.35938 7.78563 4.21562C7.64271 4.07187 7.46563 4 7.25438 4C7.04313 4 6.86458 4.07187 6.71875 4.21562C6.57292 4.35938 6.5 4.5375 6.5 4.75V10.25C6.5 10.4625 6.57146 10.6406 6.71437 10.7844C6.85729 10.9281 7.03437 11 7.24562 11Z" fill="#F31700"/>
</svg>
