<svg width="17" height="16" viewBox="0 0 17 16" fill="none" xmlns="http://www.w3.org/2000/svg">
<path d="M4.9165 15C4.504 15 4.15088 14.8531 3.85713 14.5594C3.56338 14.2656 3.4165 13.9125 3.4165 13.5V3.5H3.1665C2.954 3.5 2.77588 3.42854 2.63213 3.28563C2.48838 3.14271 2.4165 2.96563 2.4165 2.75438C2.4165 2.54313 2.48838 2.36458 2.63213 2.21875C2.77588 2.07292 2.954 2 3.1665 2H6.4165V1.75C6.4165 1.5375 6.48838 1.35937 6.63213 1.21562C6.77588 1.07187 6.954 1 7.1665 1H9.6665C9.879 1 10.0571 1.07187 10.2009 1.21562C10.3446 1.35937 10.4165 1.5375 10.4165 1.75V2H13.6665C13.879 2 14.0571 2.07146 14.2009 2.21437C14.3446 2.35729 14.4165 2.53437 14.4165 2.74562C14.4165 2.95687 14.3446 3.13542 14.2009 3.28125C14.0571 3.42708 13.879 3.5 13.6665 3.5H13.4165V13.491C13.4165 13.9137 13.2696 14.2708 12.9759 14.5625C12.6821 14.8542 12.329 15 11.9165 15H4.9165ZM11.9165 3.5H4.9165V13.5H11.9165V3.5ZM7.16213 12C7.37338 12 7.55192 11.9281 7.69775 11.7844C7.84359 11.6406 7.9165 11.4625 7.9165 11.25V5.75C7.9165 5.5375 7.84505 5.35938 7.70213 5.21562C7.55921 5.07187 7.38213 5 7.17088 5C6.95963 5 6.78109 5.07187 6.63525 5.21562C6.48942 5.35938 6.4165 5.5375 6.4165 5.75V11.25C6.4165 11.4625 6.48796 11.6406 6.63088 11.7844C6.7738 11.9281 6.95088 12 7.16213 12ZM9.66213 12C9.87338 12 10.0519 11.9281 10.1978 11.7844C10.3436 11.6406 10.4165 11.4625 10.4165 11.25V5.75C10.4165 5.5375 10.345 5.35938 10.2021 5.21562C10.0592 5.07187 9.88213 5 9.67088 5C9.45963 5 9.28109 5.07187 9.13525 5.21562C8.98942 5.35938 8.9165 5.5375 8.9165 5.75V11.25C8.9165 11.4625 8.98796 11.6406 9.13088 11.7844C9.2738 11.9281 9.45088 12 9.66213 12Z" fill="white"/>
</svg>
